<?xml version="1.0" encoding="UTF-8" standalone="no"?>
<svg width="373px" height="266px" viewBox="0 0 373 266" version="1.1" xmlns="http://www.w3.org/2000/svg" xmlns:xlink="http://www.w3.org/1999/xlink" xmlns:sketch="http://www.bohemiancoding.com/sketch/ns">
    <!-- Generator: Sketch 3.0.4 (8053) - http://www.bohemiancoding.com/sketch -->
    <title>Join</title>
    <desc>Created with Sketch.</desc>
    <defs></defs>
    <g id="Page-1" stroke="none" stroke-width="1" fill="none" fill-rule="evenodd" sketch:type="MSPage">
        <g id="Join" sketch:type="MSLayerGroup">
            <path d="M35.5822368,71.2061538 C55.2337636,71.2061538 71.1644737,55.2661134 71.1644737,35.6030769 C71.1644737,15.9400405 55.2337636,0 35.5822368,0 C15.9307101,0 0,15.9400405 0,35.6030769 C0,55.2661134 15.9307101,71.2061538 35.5822368,71.2061538 Z M35.9912281,54.8369231 C46.3816905,54.8369231 54.8048246,46.4088557 54.8048246,36.0123077 C54.8048246,25.6157597 46.3816905,17.1876923 35.9912281,17.1876923 C25.6007656,17.1876923 17.1776316,25.6157597 17.1776316,36.0123077 C17.1776316,46.4088557 25.6007656,54.8369231 35.9912281,54.8369231 Z" id="Oval-1" fill="#333333" sketch:type="MSShapeGroup"></path>
            <path d="M337.417763,168.193846 C357.06929,168.193846 373,152.253806 373,132.590769 C373,112.927733 357.06929,96.9876923 337.417763,96.9876923 C317.766236,96.9876923 301.835526,112.927733 301.835526,132.590769 C301.835526,152.253806 317.766236,168.193846 337.417763,168.193846 Z M337.417763,151.415385 C347.808226,151.415385 356.23136,142.987317 356.23136,132.590769 C356.23136,122.194221 347.808226,113.766154 337.417763,113.766154 C327.027301,113.766154 318.604167,122.194221 318.604167,132.590769 C318.604167,142.987317 327.027301,151.415385 337.417763,151.415385 Z" id="Oval-2" fill="#333333" sketch:type="MSShapeGroup"></path>
            <path d="M35.5822368,266 C55.2337636,266 71.1644737,250.05996 71.1644737,230.396923 C71.1644737,210.733887 55.2337636,194.793846 35.5822368,194.793846 C15.9307101,194.793846 0,210.733887 0,230.396923 C0,250.05996 15.9307101,266 35.5822368,266 Z M35.5822368,249.221538 C45.9726993,249.221538 54.3958333,240.793471 54.3958333,230.396923 C54.3958333,220.000375 45.9726993,211.572308 35.5822368,211.572308 C25.1917744,211.572308 16.7686404,220.000375 16.7686404,230.396923 C16.7686404,240.793471 25.1917744,249.221538 35.5822368,249.221538 Z" id="Oval-3" fill="#333333" sketch:type="MSShapeGroup"></path>
            <path d="M66.7079506,35.7081009 C152.263585,35.7081009 231.788694,132.565254 306.064201,132.565255" id="Path-11" stroke="#333333" stroke-width="25" sketch:type="MSShapeGroup"></path>
            <path d="M66.7079506,132.696679 C152.263585,132.696679 231.788694,230.371193 306.064201,230.371193" id="Path-12" stroke="#333333" stroke-width="25" sketch:type="MSShapeGroup" transform="translate(186.295504, 181.493846) scale(1, -1) translate(-186.295504, -181.493846) "></path>
        </g>
    </g>
</svg>