<?xml version="1.0" encoding="UTF-8" standalone="no"?>
<svg width="106px" height="121px" viewBox="0 0 106 121" version="1.1" xmlns="http://www.w3.org/2000/svg" xmlns:xlink="http://www.w3.org/1999/xlink" xmlns:sketch="http://www.bohemiancoding.com/sketch/ns">
    <!-- Generator: Sketch 3.0.4 (8053) - http://www.bohemiancoding.com/sketch -->
    <title>Wand final</title>
    <desc>Created with Sketch.</desc>
    <defs></defs>
    <g id="Page-1" stroke="none" stroke-width="1" fill="none" fill-rule="evenodd" sketch:type="MSPage">
        <g id="Wand-final" sketch:type="MSLayerGroup" transform="translate(48.000000, 65.500000) rotate(-45.000000) translate(-48.000000, -65.500000) translate(-16.000000, 33.000000)" fill="#333333">
            <path d="M0,29.0065147 L0,44.2508143 L106.135987,44.2508143 L106.135987,29.0065147 L0,29.0065147 Z M83.6351575,31.1237785 L83.6351575,42.1335505 L104.013267,42.1335505 L104.013267,31.1237785 L83.6351575,31.1237785 Z" id="Rectangle-6" sketch:type="MSShapeGroup"></path>
            <path d="M98.8535111,0.0988707508 C98.8535111,0.0988707508 107.081688,8.33901733 111.674884,8.361238 C116.268079,8.38345867 124.027808,0.189375419 124.027808,0.189375419 C124.027808,0.189375419 116.190381,8.26255501 116.200026,12.9265445 C116.20967,17.5905341 124.066891,25.2316353 124.066891,25.2316353 C124.066891,25.2316353 116.268079,17.5847818 111.674884,17.5905341 C107.081688,17.5962863 98.8652633,25.2542615 98.8652633,25.2542615 C98.8652633,25.2542615 107.084679,17.4918511 107.081688,12.9265445 C107.078697,8.361238 98.8535111,0.0988707508 98.8535111,0.0988707508 Z" id="Path-2" sketch:type="MSShapeGroup"></path>
            <path d="M101.844113,43.4745308 C101.844113,43.4745308 107.70146,49.3603497 110.971192,49.3762217 C114.240924,49.3920936 119.764799,43.539177 119.764799,43.539177 C119.764799,43.539177 114.185614,49.3057338 114.19248,52.6371549 C114.199345,55.968576 119.792621,61.4265055 119.792621,61.4265055 C119.792621,61.4265055 114.240924,55.9644673 110.971192,55.968576 C107.70146,55.9726847 101.852479,61.442667 101.852479,61.442667 C101.852479,61.442667 107.703589,55.8980881 107.70146,52.6371549 C107.69933,49.3762217 101.844113,43.4745308 101.844113,43.4745308 Z" id="Path-3" sketch:type="MSShapeGroup" transform="translate(110.805970, 52.402280) rotate(-307.000000) translate(-110.805970, -52.402280) "></path>
            <path d="M84.8839141,14.6473395 C84.8839141,14.6473395 88.0217783,17.8326062 89.7734205,17.8411957 C91.5250628,17.8497852 94.4842816,14.6823245 94.4842816,14.6823245 C94.4842816,14.6823245 91.4954324,17.8030493 91.4991103,19.6059361 C91.5027882,21.4088228 94.4991861,24.3625258 94.4991861,24.3625258 C94.4991861,24.3625258 91.5250628,21.4065992 89.7734205,21.4088228 C88.0217783,21.4110463 84.8883959,24.371272 84.8883959,24.371272 C84.8883959,24.371272 88.022919,21.3706764 88.0217783,19.6059361 C88.0206375,17.8411957 84.8839141,14.6473395 84.8839141,14.6473395 Z" id="Path-4" sketch:type="MSShapeGroup" transform="translate(89.684909, 19.478827) rotate(-248.000000) translate(-89.684909, -19.478827) "></path>
            <path d="M117.573798,33.7027141 C117.573798,33.7027141 120.711662,36.8879808 122.463304,36.8965703 C124.214947,36.9051598 127.174166,33.7376991 127.174166,33.7376991 C127.174166,33.7376991 124.185316,36.8584239 124.188994,38.6613107 C124.192672,40.4641974 127.18907,43.4179004 127.18907,43.4179004 C127.18907,43.4179004 124.214947,40.4619738 122.463304,40.4641974 C120.711662,40.4664209 117.57828,43.4266466 117.57828,43.4266466 C117.57828,43.4266466 120.712803,40.426051 120.711662,38.6613107 C120.710521,36.8965703 117.573798,33.7027141 117.573798,33.7027141 Z" id="Path-5" sketch:type="MSShapeGroup" transform="translate(122.374793, 38.534202) rotate(-170.000000) translate(-122.374793, -38.534202) "></path>
        </g>
    </g>
</svg>